<?xml version="1.0" standalone="no"?><!DOCTYPE svg PUBLIC "-//W3C//DTD SVG 1.1//EN" "http://www.w3.org/Graphics/SVG/1.1/DTD/svg11.dtd"><svg t="1776319325213" class="icon" viewBox="0 0 1243 1024" version="1.1" xmlns="http://www.w3.org/2000/svg" p-id="29502" xmlns:xlink="http://www.w3.org/1999/xlink" width="310.75" height="256"><path d="M1206.857143 804.571429H36.571429c-21.942857 0-36.571429-14.628571-36.571429-36.571429V36.571429c0-21.942857 14.628571-36.571429 36.571429-36.571429h1170.285714c21.942857 0 36.571429 14.628571 36.571428 36.571429v731.428571c0 21.942857-14.628571 36.571429-36.571428 36.571429zM73.142857 731.428571h1097.142857V73.142857H73.142857v658.285714z" fill="#1296db" p-id="29503"></path><path d="M709.485714 1024c-21.942857 0-36.571429-14.628571-36.571428-36.571429v-219.428571c0-21.942857 14.628571-36.571429 36.571428-36.571429s36.571429 14.628571 36.571429 36.571429v219.428571c0 21.942857-14.628571 36.571429-36.571429 36.571429z m-175.542857 0c-21.942857 0-36.571429-14.628571-36.571428-36.571429v-219.428571c0-21.942857 14.628571-36.571429 36.571428-36.571429s36.571429 14.628571 36.571429 36.571429v219.428571c0 21.942857-18.285714 36.571429-36.571429 36.571429z" fill="#1296db" p-id="29504"></path><path d="M943.542857 1024h-658.285714c-21.942857 0-36.571429-14.628571-36.571429-36.571429s14.628571-36.571429 36.571429-36.571428h658.285714c21.942857 0 36.571429 14.628571 36.571429 36.571428s-18.285714 36.571429-36.571429 36.571429zM402.285714 533.942857c-10.971429 0-18.285714-3.657143-25.6-10.971428l-76.8-76.8c-14.628571-14.628571-14.628571-36.571429 0-51.2l76.8-76.8c14.628571-14.628571 36.571429-14.628571 51.2 0s14.628571 36.571429 0 51.2l-51.2 51.2 51.2 51.2c14.628571 14.628571 14.628571 36.571429 0 51.2-7.314286 7.314286-14.628571 10.971429-25.6 10.971428zM841.142857 533.942857c-10.971429 0-18.285714-3.657143-25.6-10.971428-14.628571-14.628571-14.628571-36.571429 0-51.2l51.2-51.2-51.2-51.2c-14.628571-14.628571-14.628571-36.571429 0-51.2s36.571429-14.628571 51.2 0l76.8 76.8c14.628571 14.628571 14.628571 36.571429 0 51.2l-76.8 76.8c-7.314286 7.314286-14.628571 10.971429-25.6 10.971428z" fill="#1296db" p-id="29505"></path></svg>